<?xml version="1.0" encoding="UTF-8" standalone="no"?>
<!-- Created with Inkscape (http://www.inkscape.org/) -->

<svg
   width="91.214172mm"
   height="39.40918mm"
   viewBox="0 0 91.214172 39.40918"
   version="1.1"
   id="svg488"
   xml:space="preserve"
   inkscape:export-filename="logo.svg"
   inkscape:export-xdpi="96"
   inkscape:export-ydpi="96"
   xmlns:inkscape="http://www.inkscape.org/namespaces/inkscape"
   xmlns:sodipodi="http://sodipodi.sourceforge.net/DTD/sodipodi-0.dtd"
   xmlns="http://www.w3.org/2000/svg"
   xmlns:svg="http://www.w3.org/2000/svg"><sodipodi:namedview
     id="namedview490"
     pagecolor="#ffffff"
     bordercolor="#000000"
     borderopacity="0.25"
     inkscape:showpageshadow="2"
     inkscape:pageopacity="0.0"
     inkscape:pagecheckerboard="0"
     inkscape:deskcolor="#d1d1d1"
     inkscape:document-units="mm"
     showgrid="false" /><defs
     id="defs485" /><g
     inkscape:label="Layer 1"
     inkscape:groupmode="layer"
     id="layer1"
     transform="translate(-98.870684,-79.560667)"><g
       id="g843"
       transform="translate(135.66682,-7.8268856)"><path
         style="display:inline;fill:#2bcedf;stroke-width:0.264583"
         d="m 39.118729,125.21875 c -0.0091,0.0308 -0.01837,0.0616 -0.02687,0.0925 0.01354,-0.0192 0.02657,-0.0388 0.03927,-0.0594 -0.0036,-0.01 -0.0088,-0.0235 -0.0124,-0.0331 z"
         id="path960" /><path
         style="display:none;fill:#2bcedf;stroke-width:0.264583"
         d="m 0.98203829,119.73174 c 0.001348,0.21151 -0.009342,0.4514 -0.037207,0.79634 -0.0878148,1.0871 -0.40559477,2.13647 -0.60874837,3.20342 -0.13292674,0.74012 -0.20988635,1.56303 0.17569987,2.25309 0.0955168,0.17095 0.22566585,0.32003 0.33848063,0.48008 0.33026708,0.36513 0.67676638,0.72194 1.05058188,1.04438 0.2311552,-1.2451 0.5573214,-2.95173 0.9927042,-5.15111 0.1905956,-0.9628 0.3133801,-1.66433 0.4681885,-2.4939 -0.2426802,0.11031 -0.4938049,0.19926 -0.749825,0.26148 -0.5234518,0.12722 -1.128728,-0.15334 -1.62987471,-0.39378 z"
         id="path958" /><path
         style="display:inline;fill:#2bcedf;stroke-width:0.264583"
         d="m 52.628498,111.45765 c -0.07249,0.0294 -0.144404,0.0609 -0.217041,0.0894 -0.05411,0.015 -0.107829,0.0322 -0.161747,0.0481 0.327963,0.22947 0.487162,0.24032 0.378788,-0.13746 z"
         id="path950" /><path
         style="display:inline;fill:#2bcedf;stroke-width:0.264583"
         d="m 54.014977,97.368587 c 0.120467,0.08052 0.228839,0.153416 0.338481,0.227377 0.02044,-0.07406 0.0446,-0.146983 0.06459,-0.221176 -0.134371,-0.0012 -0.268658,-0.0056 -0.403076,-0.0062 z"
         id="path926" /><path
         style="display:inline;fill:#2bcedf;stroke-width:0.264583"
         d="m -25.35899,92.906328 c -0.0097,0.01016 -0.04268,0.03339 -0.02894,0.03049 0.03953,-0.0085 0.07499,-0.01616 0.113171,-0.02429 -0.02812,-0.0016 -0.05609,-0.0049 -0.08423,-0.0062 z"
         id="path918" /><path
         style="display:inline;fill:#2bcedf;stroke-width:0.264583"
         d="m -10.142864,89.221799 c -0.0647,-0.01075 -0.123072,0.05702 -0.164331,0.108004 -0.01417,0.01751 -0.03282,0.03484 -0.04909,0.05219 0.02583,-0.01641 0.05316,-0.03047 0.07855,-0.04754 0.04871,-0.03274 0.192781,-0.103054 0.134876,-0.112654 z"
         id="path916" /><path
         style="display:inline;fill:#616a95;fill-opacity:1;stroke-width:0.264583"
         d="m 30.349902,96.766555 c 0.904616,-4.656668 1.593408,-8.615496 1.530652,-8.797397 -0.07858,-0.227756 -0.777478,-0.330729 -2.244746,-0.330729 -1.958375,0 -2.151055,0.04813 -2.383073,0.595312 -0.235461,0.5553 -2.641476,13.072599 -3.053483,15.885759 -0.185639,1.26753 -0.185639,1.26753 2.160128,1.19062 l 2.345766,-0.0769 z"
         id="path986" /><path
         style="display:inline;fill:#616a95;fill-opacity:1;stroke-width:0.264583"
         d="m 9.511922,102.71967 c 0.74749,-1.4552 1.435468,-2.64583 1.528839,-2.64583 0.09337,0 0.433414,0.24769 0.755653,0.55041 0.585883,0.55041 0.585883,0.55041 0.872842,-0.787625 0.157826,-0.73592 0.363556,-1.81705 0.457171,-2.4025 0.09362,-0.58544 0.248811,-1.06445 0.344879,-1.06445 0.09606,0 1.107689,2.02407 2.248051,4.497915 2.073386,4.49792 2.073386,4.49792 4.024852,4.49792 1.073306,0 1.951826,-0.0298 1.952268,-0.0661 5.29e-4,-0.0364 0.244729,-1.3163 0.542866,-2.84427 1.959954,-10.044882 2.631332,-13.672587 2.631332,-14.218078 0,-0.604499 -0.05381,-0.618808 -2.044308,-0.543566 l -2.044309,0.07728 -0.821359,4.233333 c -0.451747,2.328333 -0.87126,4.379846 -0.932254,4.558926 -0.06099,0.17908 -1.073002,-1.725916 -2.248908,-4.23333 -2.138016,-4.558929 -2.138016,-4.558929 -4.135544,-4.635635 l -1.997527,-0.07671 -1.251439,6.558997 c -0.688293,3.607448 -1.457116,7.540733 -1.7085,8.740643 -0.25138,1.19991 -0.397004,2.24171 -0.323606,2.31511 0.434813,0.43481 0.936257,-0.15142 2.149001,-2.51239 z"
         id="path984" /><path
         style="display:inline;fill:#616a95;fill-opacity:1;stroke-width:0.264583"
         d="m -4.2504012,100.66547 c 0.5000255,-2.512245 0.9882876,-4.476775 1.0850272,-4.365615 0.096742,0.11116 1.106509,2.19641 2.243929,4.633885 2.068033,4.43177 2.068033,4.43177 4.003161,4.43177 1.791341,0 1.944926,-0.0442 2.066989,-0.59532 0.07252,-0.32742 0.733099,-3.75046 1.467948,-7.606765 0.734848,-3.856298 1.439079,-7.526042 1.56496,-8.154986 0.276828,-1.383131 0.207645,-1.423998 -2.229289,-1.316863 -1.800223,0.07914 -1.800223,0.07914 -2.545705,3.915603 -0.410017,2.110052 -0.821973,4.134115 -0.915461,4.497916 -0.142343,0.55393 -0.52769,-0.08051 -2.370365,-3.902604 -2.200391,-4.564062 -2.200391,-4.564062 -4.0554722,-4.564062 -1.0202968,0 -1.9261931,0.115059 -2.0131061,0.255685 -0.1822635,0.29491 -2.9625846,14.325846 -3.2153648,16.226396 -0.1687195,1.26854 -0.1687195,1.26854 1.9174486,1.19062 l 2.0861682,-0.0779 z"
         id="path982" /><path
         style="display:inline;fill:#616a95;fill-opacity:1;stroke-width:0.264583"
         d="m -10.869998,104.02957 c 0.157577,-0.73477 0.286506,-1.70078 0.286506,-2.14669 0,-0.81076 0,-0.81076 -3.704166,-0.70903 -4.095335,0.11247 -3.852413,0.22899 -3.534344,-1.695315 0.163996,-0.99219 0.163996,-0.99219 3.43163,-0.99219 3.172174,0 3.271586,-0.0174 3.402949,-0.59531 0.528288,-2.32416 0.665308,-3.200206 0.52278,-3.342401 -0.09004,-0.08983 -1.522839,-0.120864 -3.183991,-0.06896 -3.31012,0.103423 -3.149597,0.19399 -2.851568,-1.608841 0.16288,-0.985306 0.16288,-0.985306 4.021442,-1.058334 4.3188199,-0.08174 3.9182487,0.195636 4.4049921,-3.050217 0.170008,-1.133689 0.170008,-1.133689 -5.9945381,-1.062625 l -6.164545,0.07107 -1.64351,8.334378 c -0.90393,4.583905 -1.649857,8.542735 -1.657612,8.797395 -0.01304,0.42819 0.451951,0.46302 6.181683,0.46302 6.195782,0 6.195782,0 6.482292,-1.33594 z"
         id="path980" /><path
         style="display:inline;fill:#616a95;fill-opacity:1;stroke-width:0.264583"
         d="m -29.814525,104.77019 c 0.0775,-0.32742 0.629957,-3.09562 1.227672,-6.151555 0.597718,-3.055935 1.144794,-5.824138 1.215726,-6.15156 0.122005,-0.563168 0.256254,-0.595313 2.486417,-0.595313 2.35745,0 2.35745,0 2.662917,-1.521354 0.168008,-0.836745 0.367948,-1.789245 0.444318,-2.116667 0.13885,-0.595312 0.13885,-0.595312 -7.129349,-0.595312 h -7.268198 l -0.30111,1.499336 c -0.56699,2.823252 -0.630581,2.733997 1.947849,2.733997 1.966181,0 2.248725,0.05822 2.247107,0.463021 -10e-4,0.254662 -0.5368,3.190301 -1.190625,6.523642 -0.653826,3.333335 -1.188774,6.161075 -1.188774,6.283855 0,0.12277 1.058655,0.22323 2.352567,0.22323 2.221558,0 2.360414,-0.0331 2.493483,-0.59532 z"
         id="path978" /><path
         style="display:inline;fill:#616a95;fill-opacity:1;stroke-width:0.264583"
         d="m 39.734255,105.35691 c 3.31098,-0.91961 5.659882,-4.47421 4.983268,-7.541195 -0.316481,-1.43455 -1.321855,-2.184176 -4.429257,-3.302511 -2.077702,-0.747753 -2.601243,-1.041437 -2.6665,-1.495806 -0.191968,-1.33663 2.690008,-1.914766 4.387075,-0.880063 0.476459,0.290497 1.326838,0.528177 1.889728,0.528177 1.023438,0 1.023438,0 1.473655,-1.837153 0.247621,-1.010435 0.373465,-1.961343 0.279657,-2.113131 -0.09381,-0.151787 -1.009687,-0.530852 -2.035281,-0.842365 -2.638838,-0.801523 -4.953196,-0.614286 -7.316073,0.591889 -2.088446,1.066085 -3.090902,2.339689 -3.541903,4.499927 -0.267901,1.283208 -0.246864,1.657811 0.151701,2.701436 0.555784,1.4553 1.324999,1.98075 4.30783,2.94265 1.188561,0.38329 2.298152,0.86212 2.465755,1.06407 0.427469,0.515065 -0.0911,1.406575 -0.942467,1.620255 -1.13194,0.2841 -3.388696,-0.0346 -4.683652,-0.66153 -1.706803,-0.826235 -2.151729,-0.61188 -2.816653,1.35707 -0.302297,0.89515 -0.54963,1.76494 -0.54963,1.93286 0,0.32698 1.398739,1.00554 2.910417,1.41193 1.264174,0.33985 4.942578,0.35393 6.13233,0.0235 z"
         id="path976" /><path
         style="display:inline;fill:#616a95;fill-opacity:1;stroke-width:0.264583"
         d="m 24.194755,122.89415 c 0.263702,-1.41882 0.591248,-2.79527 0.727882,-3.05876 0.353575,-0.68186 1.323805,-0.46605 1.559097,0.34678 0.105309,0.36381 0.549314,1.67349 0.986673,2.91042 0.7952,2.24896 0.7952,2.24896 3.332067,2.32469 1.395278,0.0416 2.536868,-0.016 2.536868,-0.12806 0,-0.11208 -0.563759,-1.62259 -1.252794,-3.35669 -1.214134,-3.05561 -1.236586,-3.16189 -0.727605,-3.44382 0.288854,-0.16 1.014942,-0.78204 1.61353,-1.38232 2.684817,-2.69238 2.526612,-7.19227 -0.305086,-8.67768 -0.921475,-0.48337 -1.602512,-0.55974 -5.647346,-0.63328 -2.529731,-0.046 -4.692827,0.0135 -4.806881,0.13229 -0.114051,0.11875 -0.28916,0.77443 -0.389125,1.45705 -0.181756,1.24115 -0.181756,1.24115 1.102712,1.32292 1.271516,0.081 1.285287,0.0916 1.365437,1.05467 0.08162,0.98078 -0.27687,1.36498 -3.182519,3.41073 -0.190849,0.13437 -2.050934,9.15507 -2.055834,9.97002 -0.0013,0.23973 0.639885,0.33073 2.330739,0.33073 h 2.332725 z"
         id="path972" /><path
         style="display:inline;fill:#616a95;fill-opacity:1;stroke-width:0.264583"
         d="m -4.5826887,118.46238 c 0.7589996,-3.78354 1.3861917,-6.90893 1.3937641,-6.94531 0.00757,-0.0364 1.0773066,-0.0661 2.3771856,-0.0661 2.585429,0 2.433717,0.1005 2.795956,-1.85208 0.09449,-0.50932 0.230462,-1.1344 0.302164,-1.38906 0.121889,-0.4329 -0.342315,-0.46302 -7.1348172,-0.46302 -8.2934148,0 -7.3896988,-0.31765 -7.7470718,2.72303 -0.177506,1.5103 -0.177506,1.5103 2.10788,1.5103 1.2569615,0 2.2853863,0.10238 2.2853863,0.2275 0,0.12513 -0.5357812,2.94636 -1.190625,6.2694 -0.6548433,3.32305 -1.1906253,6.2614 -1.1906253,6.52968 0,0.44257 0.214096,0.48069 2.3104029,0.41133 l 2.3104025,-0.0764 z"
         id="path970" /><path
         style="display:inline;fill:#616a95;fill-opacity:1;stroke-width:0.264583"
         d="m -19.796995,125.46493 c 2.85592,-0.7923 4.98017,-3.4591 4.98017,-6.25215 0,-0.79097 -0.181332,-1.78879 -0.402958,-2.21737 -0.459618,-0.8888 -2.126395,-1.81385 -4.491834,-2.49292 -2.320096,-0.66607 -2.77224,-1.24105 -1.811075,-2.30313 0.645932,-0.71375 3.215629,-0.67568 4.152826,0.0615 0.48433,0.38098 0.991087,0.52055 1.681154,0.46303 0.976337,-0.0814 0.993746,-0.10308 1.495616,-1.86324 0.621562,-2.17994 0.511476,-2.36193 -1.808636,-2.98995 -3.665734,-0.99227 -7.458226,-0.0922 -9.458563,2.24471 -2.077374,2.42694 -2.019443,6.28084 0.112125,7.4596 0.335208,0.18538 1.681032,0.70684 2.99072,1.15881 2.147118,0.74096 2.389537,0.89217 2.465541,1.53784 0.07171,0.60922 -0.06358,0.77788 -0.906552,1.13009 -1.249146,0.52193 -2.900363,0.31837 -4.798113,-0.59151 -0.773428,-0.37082 -1.604323,-0.59606 -1.878195,-0.50913 -0.634913,0.20151 -1.726383,3.71145 -1.266728,4.07353 1.783403,1.4048 5.970882,1.91523 8.944502,1.09028 z"
         id="path968" /><path
         style="display:inline;fill:#8b94cc;fill-opacity:1;stroke-width:0.264583"
         d="m 5.251091,124.26424 c 2.086266,-1.39289 3.955732,-2.47016 4.154368,-2.39393 0.198639,0.0762 1.716119,1.15633 3.372181,2.40023 1.656061,1.2439 3.134897,2.26163 3.286299,2.26163 0.1514,0 0.417695,-0.1716 0.591762,-0.38134 0.25019,-0.30146 0.118414,-1.17881 -0.629063,-4.1883 -0.520049,-2.09383 -0.945546,-3.87515 -0.945546,-3.9585 0,-0.0833 1.547812,-1.2418 3.439583,-2.57433 4.711068,-3.31842 4.69156,-3.41421 -0.714555,-3.50904 l -4.154138,-0.0729 -0.69229,-3.98191 c -0.380762,-2.19005 -0.780614,-4.12482 -0.888561,-4.29948 -0.107948,-0.17466 -0.424376,-0.31757 -0.70317,-0.31757 -0.393891,0 -0.976519,0.97329 -2.613335,4.36563 l -2.106432,4.36562 H 2.694956 c -3.176167,0 -4.017433,0.0773 -4.279818,0.39351 -0.17962,0.21642 -0.259897,0.56728 -0.178392,0.77967 0.130278,0.33951 2.679962,2.46161 4.789371,3.9862 0.732152,0.52916 0.732152,0.52916 -1.01477,4.42814 -2.017469,4.50283 -2.152729,5.22915 -0.973804,5.22915 0.231187,0 2.127284,-1.13964 4.213548,-2.53252 z"
         id="path964" /></g></g></svg>
