<?xml version="1.0" encoding="UTF-8" standalone="no"?>
<!-- Created with Inkscape (http://www.inkscape.org/) -->

<svg
   width="23.757469mm"
   height="23.547924mm"
   viewBox="0 0 23.757469 23.547924"
   version="1.1"
   id="svg488"
   xml:space="preserve"
   inkscape:export-filename="logoSmall.svg"
   inkscape:export-xdpi="96"
   inkscape:export-ydpi="96"
   sodipodi:docname="logo.svg"
   xmlns:inkscape="http://www.inkscape.org/namespaces/inkscape"
   xmlns:sodipodi="http://sodipodi.sourceforge.net/DTD/sodipodi-0.dtd"
   xmlns="http://www.w3.org/2000/svg"
   xmlns:svg="http://www.w3.org/2000/svg"><sodipodi:namedview
     id="namedview490"
     pagecolor="#ffffff"
     bordercolor="#000000"
     borderopacity="0.25"
     inkscape:showpageshadow="2"
     inkscape:pageopacity="0.0"
     inkscape:pagecheckerboard="0"
     inkscape:deskcolor="#d1d1d1"
     inkscape:document-units="mm"
     showgrid="false" /><defs
     id="defs485"><clipPath
       clipPathUnits="userSpaceOnUse"
       id="clipPath1142"><rect
         style="fill:#b3b3b3;fill-opacity:0.661803;stroke-width:0.192027"
         id="rect1144"
         width="24.394798"
         height="24.062489"
         x="-3.7549782"
         y="93.892128" /></clipPath></defs><g
     inkscape:label="Layer 1"
     inkscape:groupmode="layer"
     id="layer1"
     transform="translate(-132.27285,-86.35596)"><g
       id="g843"
       transform="translate(135.66682,-7.8268856)"><path
         style="display:inline;fill:#8b94cc;fill-opacity:1;stroke-width:0.264583"
         d="m 3.6522528,115.19829 c 2.086266,-1.39289 3.955732,-2.47016 4.154368,-2.39393 0.198639,0.0762 1.716119,1.15633 3.3721812,2.40023 1.656061,1.2439 3.134897,2.26163 3.286299,2.26163 0.1514,0 0.417695,-0.1716 0.591762,-0.38134 0.25019,-0.30146 0.118414,-1.17881 -0.629063,-4.1883 -0.520049,-2.09383 -0.945546,-3.87515 -0.945546,-3.9585 0,-0.0833 1.547812,-1.2418 3.439583,-2.57433 4.711068,-3.31842 4.69156,-3.41421 -0.714555,-3.50904 l -4.154138,-0.0729 -0.69229,-3.981914 c -0.380762,-2.19005 -0.780614,-4.12482 -0.888561,-4.29948 -0.107948,-0.17466 -0.424376,-0.31757 -0.7031702,-0.31757 -0.393891,0 -0.976519,0.97329 -2.613335,4.36563 l -2.106432,4.365624 h -3.953238 c -3.176167,0 -4.017433,0.0773 -4.279818,0.39351 -0.17962,0.21642 -0.259897,0.56728 -0.178392,0.77967 0.130278,0.33951 2.67996201,2.46161 4.789371,3.9862 0.732152,0.52916 0.732152,0.52916 -1.01476999,4.42814 -2.01746901,4.50283 -2.15272901,5.22915 -0.973804,5.22915 0.231187,0 2.12728399,-1.13964 4.21354799,-2.53252 z"
         id="path964"
         clip-path="url(#clipPath1142)" /></g></g></svg>
